<svg xmlns="http://www.w3.org/2000/svg" viewBox="0 0 170 145"><defs><radialGradient id="b" cx="50%" cy="48%" r="62%"><stop offset="0" stop-color="#fff6af"/><stop offset=".3" stop-color="#ffb82f"/><stop offset=".62" stop-color="#ff375f"/><stop offset="1" stop-color="#4a082e" stop-opacity="0"/></radialGradient><linearGradient id="shoe" x1="0" x2="1" y1="0" y2="1"><stop stop-color="#ffc05d"/><stop offset=".55" stop-color="#ed8a2b"/><stop offset="1" stop-color="#b64b13"/></linearGradient><filter id="s" x="-30%" y="-30%" width="160%" height="160%"><feDropShadow dx="0" dy="5" stdDeviation="3.5" flood-color="#17010d" flood-opacity=".85"/></filter></defs><circle cx="84" cy="69" r="60" fill="url(#b)"/><g fill="#ffe77f"><path d="M27 36l3 7 7 3-7 3-3 7-3-7-7-3 7-3zM137 25l3 8 8 3-8 3-3 8-3-8-8-3 8-3zM132 91l2 6 6 2-6 2-2 6-2-6-6-2 6-2z"/></g><g filter="url(#s)"><path d="M70 23c20 2 34 13 40 31 4 13 2 25 9 34 8 11 24 14 39 19 7 3 8 10 2 15-13 10-31 14-49 14-17 0-31-3-42-9-9-5-9-15-1-20 10-6 24-4 32-10 6-5 7-12 5-21-3-14-12-26-25-34-9-6-10-17-2-18 4-1 8-2 12-1z" fill="url(#shoe)" stroke="#2e0c07" stroke-width="4"/><path d="M68 111l-9 28h11l9-29z" fill="#2a0907"/><path d="M73 27c7 1 13 3 19 7-8 4-14 10-18 18-6-5-11-8-17-11 4-7 9-12 16-14z" fill="#ffd9bc"/><g fill="#25100b"><ellipse cx="80" cy="55" rx="6" ry="8" transform="rotate(-18 80 55)"/><ellipse cx="96" cy="67" rx="5" ry="7" transform="rotate(19 96 67)"/><ellipse cx="107" cy="88" rx="7" ry="5" transform="rotate(18 107 88)"/><ellipse cx="84" cy="92" rx="5" ry="7" transform="rotate(-22 84 92)"/><ellipse cx="132" cy="108" rx="7" ry="4"/></g><g fill="#ffcf3d"><ellipse cx="80" cy="55" rx="2.5" ry="3.5"/><ellipse cx="96" cy="67" rx="2.2" ry="3"/><ellipse cx="107" cy="88" rx="3" ry="2"/><ellipse cx="84" cy="92" rx="2.2" ry="3"/><ellipse cx="132" cy="108" rx="2.8" ry="1.7"/></g></g></svg>