<svg xmlns="http://www.w3.org/2000/svg" viewBox="0 0 160 140"><defs><filter id="s" x="-30%" y="-30%" width="160%" height="160%"><feDropShadow dx="0" dy="5" stdDeviation="4" flood-color="#120015" flood-opacity=".9"/></filter><linearGradient id="p" x1="0" x2="1"><stop stop-color="#ff2f93"/><stop offset="1" stop-color="#d20b65"/></linearGradient><linearGradient id="b" x1="0" x2="1"><stop stop-color="#55ddff"/><stop offset="1" stop-color="#168cff"/></linearGradient></defs><g fill="#ffe46e"><path d="M23 29l3 8 8 3-8 3-3 8-3-8-8-3 8-3zM138 91l2.5 7 7 2.5-7 2.5-2.5 7-2.5-7-7-2.5 7-2.5z"/></g><g filter="url(#s)"><path d="M35 64c12-20 34-31 57-30h16V20l31 27-31 28V60H91c-15 0-29 7-37 19z" fill="url(#p)" stroke="#ff9ad1" stroke-width="3"/><path d="M125 77c-12 20-34 31-57 30H52v14l-31-27 31-28v15h17c15 0 29-7 37-19z" fill="url(#b)" stroke="#a6f1ff" stroke-width="3"/></g></svg>